# xmcd
#
# Track frame offsets:
#	150
#	26502
#	46747
#	63370
#	90075
#	107900
#	127367
#	147695
#	161660
#	177202
#	192992
#
# Disc length: 2784 seconds
#
# Revision: 0
# Processed by: cddbd v1.5.1PL0 Copyright (c) Steve Scherf et al.
# Submitted via: EasyCDDAExtractor 4.6.9.1
#
DISCID=980ade0b
DTITLE=Peter Bruntnell - Ghost In A Spitfire
DYEAR=2005
DGENRE=Country
TTITLE0=K2
TTITLE1=Perfume River
TTITLE2=Little Lorelei
TTITLE3=Ghost In A Spitfire
TTITLE4=Fear Of Lightning
TTITLE5=Something I Lost
TTITLE6=Orange Moon
TTITLE7=Love Is On Your Side
TTITLE8=World Won't Wait
TTITLE9=Tin Streamer Song
TTITLE10=Polar Bear Jail
EXTD=
EXTT0=
EXTT1=
EXTT2=
EXTT3=
EXTT4=
EXTT5=
EXTT6=
EXTT7=
EXTT8=
EXTT9=
EXTT10=
PLAYORDER=
